<svg id="Layer_1" data-name="Layer 1" xmlns="http://www.w3.org/2000/svg" viewBox="0 0 515.99 154.74"><defs><style>.cls-1{fill:#fff;}</style></defs><title>Blanco</title><path class="cls-1" d="M946.47,569.56c9.9,4.14,16.71,10.88,19.25,21,3.28,13.06,2.2,25.7-6.17,36.85-5.35,7.12-13,10.72-21.45,12.85a73.46,73.46,0,0,1-18,2.12q-31.86.06-63.73,0c-3.31,0-4-.69-4-3.95q0-63.63,0-127.26c0-3.26.74-4,4-4,21.94,0,43.87-.08,65.81,0,10.42.06,20,2.79,28,9.91,13.17,11.79,14.77,33.72,3.51,46.66A29.88,29.88,0,0,1,946.47,569.56Zm-44.05,12.17h-23.7c-3.11,0-3.89.77-3.89,3.9q0,16.53,0,33.07c0,3.4.59,4,3.94,4,13.23,0,26.46,0,39.69,0A52.44,52.44,0,0,0,931,621.34c7.15-1.76,12-5.82,13.42-13.37a32.89,32.89,0,0,0,.15-10.34c-1-7-4.75-11.58-11.45-13.81a38.42,38.42,0,0,0-9.24-1.77C916.34,581.46,908.77,581.85,902.42,581.73Zm-3.36-19.68c6.12,0,12.23,0,18.35,0a40.46,40.46,0,0,0,6.21-.45c9-1.4,14-6.46,15-15.27,1-9.12-3.71-16.06-12.57-18.4a28.52,28.52,0,0,0-7.08-1q-20.52-.1-41-.08c-2.16,0-3.08,1-3.08,3.15q0,14.46,0,28.93c0,2.37.8,3.15,3.18,3.15Z" transform="translate(-716.01 -487.66)"/><path class="cls-1" d="M810,569.58a33.5,33.5,0,0,1,9.12,5.27A31.29,31.29,0,0,1,830.3,595a47.36,47.36,0,0,1-1.72,22.21c-4.14,12.41-13.35,19.26-25.52,22.68a71.38,71.38,0,0,1-19.23,2.48c-21.31,0-42.62,0-63.92,0-3.31,0-3.9-.59-3.9-3.8V510.94c0-3,.7-3.74,3.79-3.74,22,0,44-.1,66,.05,11.26.07,21.5,3.25,29.64,11.51,11.25,11.41,12.48,31.43,2.75,43.93A28.13,28.13,0,0,1,810,569.58Zm-44,12.15H742.13c-3,0-3.8.84-3.8,3.83q0,16.73,0,33.46c0,2.89.8,3.68,3.71,3.68,13.42,0,26.84,0,40.27,0A47.74,47.74,0,0,0,795.75,621c7-2,11.23-6.42,12.3-13.7a32.14,32.14,0,0,0-.21-11.28A15.31,15.31,0,0,0,798,584.29,36.43,36.43,0,0,0,787.29,582C779.81,581.46,772.31,581.85,766,581.73Zm-3.1-19.67c6,0,12,0,18,0a39.24,39.24,0,0,0,6.21-.45c8.75-1.33,13.79-6.11,15-14.28,1.42-9.43-3.18-16.8-12.07-19.29a29.84,29.84,0,0,0-8-1.15q-20-.07-40.09-.07c-2.66,0-3.55.87-3.55,3.47v28.37c0,2.62.77,3.39,3.34,3.39Z" transform="translate(-716.01 -487.66)"/><path class="cls-1" d="M981.41,507.2c3.09,0,6.18.1,9.27,0a4,4,0,0,1,4.18,2.46q14,26.83,28.14,53.61L1038.08,592c.65,1.25,1.28,2.54,3,2.49s2.18-1.31,2.8-2.49q21.65-41.25,43.29-82.5a3.71,3.71,0,0,1,3.71-2.28c6.37.06,12.74,0,19.1,0,3.58,0,4.24,1.08,2.57,4.2l-47.28,88.51q-10.66,20-21.32,39.94c-.66,1.23-1.26,2.54-3,2.52-1.47,0-2.14-1-2.77-2.19q-13.7-25.73-27.46-51.41l-41.16-77c-.24-.45-.49-.89-.69-1.34-.84-1.86-.09-3.16,1.94-3.19C974.35,507.16,977.88,507.2,981.41,507.2Z" transform="translate(-716.01 -487.66)"/><path class="cls-1" d="M1219.28,622.84c-3.22,0-6.44-.07-9.65,0a3.78,3.78,0,0,1-3.86-2.34q-21.66-41.35-43.42-82.65c-.61-1.16-1.24-2.25-2.73-2.28s-2.17,1-2.78,2.19q-21.6,41.16-43.19,82.34a4.45,4.45,0,0,1-4.58,2.76c-6.3-.13-12.61,0-18.91,0-3,0-3.73-1.23-2.3-3.9l68.44-128.11c.2-.38.43-.76.62-1.16a2.88,2.88,0,0,1,2.7-2c1.39,0,2.09.94,2.69,2.06q23.65,44.34,47.35,88.68l21.59,40.43c1.49,2.79.78,4-2.33,4Z" transform="translate(-716.01 -487.66)"/></svg>